<?xml version="1.0" encoding="utf-8"?>
<svg xmlns="http://www.w3.org/2000/svg" xmlns:xlink="http://www.w3.org/1999/xlink" width="600" height="400" viewBox="0 0 2400 1600">
<defs>
  <clipPath id="clip3000">
    <rect x="0" y="0" width="2400" height="1600"/>
  </clipPath>
</defs>
<polygon clip-path="url(#clip3000)" points="
0,1600 2400,1600 2400,0 0,0 
  " fill="#ffffff" fill-rule="evenodd" fill-opacity="1"/>
<defs>
  <clipPath id="clip3001">
    <rect x="480" y="0" width="1681" height="1600"/>
  </clipPath>
</defs>
<polygon clip-path="url(#clip3000)" points="
202.373,1425.62 2352.76,1425.62 2352.76,121.675 202.373,121.675 
  " fill="#ffffff" fill-rule="evenodd" fill-opacity="1"/>
<defs>
  <clipPath id="clip3002">
    <rect x="202" y="121" width="2151" height="1305"/>
  </clipPath>
</defs>
<polyline clip-path="url(#clip3002)" style="stroke:#000000; stroke-width:2; stroke-opacity:0.1; fill:none" points="
  320.648,1425.62 320.648,121.675 
  "/>
<polyline clip-path="url(#clip3002)" style="stroke:#000000; stroke-width:2; stroke-opacity:0.1; fill:none" points="
  512.031,1425.62 512.031,121.675 
  "/>
<polyline clip-path="url(#clip3002)" style="stroke:#000000; stroke-width:2; stroke-opacity:0.1; fill:none" points="
  703.414,1425.62 703.414,121.675 
  "/>
<polyline clip-path="url(#clip3002)" style="stroke:#000000; stroke-width:2; stroke-opacity:0.1; fill:none" points="
  894.798,1425.62 894.798,121.675 
  "/>
<polyline clip-path="url(#clip3002)" style="stroke:#000000; stroke-width:2; stroke-opacity:0.1; fill:none" points="
  1086.18,1425.62 1086.18,121.675 
  "/>
<polyline clip-path="url(#clip3002)" style="stroke:#000000; stroke-width:2; stroke-opacity:0.1; fill:none" points="
  1277.56,1425.62 1277.56,121.675 
  "/>
<polyline clip-path="url(#clip3002)" style="stroke:#000000; stroke-width:2; stroke-opacity:0.1; fill:none" points="
  1468.95,1425.62 1468.95,121.675 
  "/>
<polyline clip-path="url(#clip3002)" style="stroke:#000000; stroke-width:2; stroke-opacity:0.1; fill:none" points="
  1660.33,1425.62 1660.33,121.675 
  "/>
<polyline clip-path="url(#clip3002)" style="stroke:#000000; stroke-width:2; stroke-opacity:0.1; fill:none" points="
  1851.71,1425.62 1851.71,121.675 
  "/>
<polyline clip-path="url(#clip3002)" style="stroke:#000000; stroke-width:2; stroke-opacity:0.1; fill:none" points="
  2043.1,1425.62 2043.1,121.675 
  "/>
<polyline clip-path="url(#clip3002)" style="stroke:#000000; stroke-width:2; stroke-opacity:0.1; fill:none" points="
  202.373,1388.71 2352.76,1388.71 
  "/>
<polyline clip-path="url(#clip3002)" style="stroke:#000000; stroke-width:2; stroke-opacity:0.1; fill:none" points="
  202.373,1026.91 2352.76,1026.91 
  "/>
<polyline clip-path="url(#clip3002)" style="stroke:#000000; stroke-width:2; stroke-opacity:0.1; fill:none" points="
  202.373,665.106 2352.76,665.106 
  "/>
<polyline clip-path="url(#clip3002)" style="stroke:#000000; stroke-width:2; stroke-opacity:0.1; fill:none" points="
  202.373,303.301 2352.76,303.301 
  "/>
<polyline clip-path="url(#clip3000)" style="stroke:#000000; stroke-width:4; stroke-opacity:1; fill:none" points="
  202.373,1425.62 2352.76,1425.62 
  "/>
<polyline clip-path="url(#clip3000)" style="stroke:#000000; stroke-width:4; stroke-opacity:1; fill:none" points="
  202.373,1425.62 202.373,121.675 
  "/>
<polyline clip-path="url(#clip3000)" style="stroke:#000000; stroke-width:4; stroke-opacity:1; fill:none" points="
  320.648,1425.62 320.648,1406.06 
  "/>
<polyline clip-path="url(#clip3000)" style="stroke:#000000; stroke-width:4; stroke-opacity:1; fill:none" points="
  512.031,1425.62 512.031,1406.06 
  "/>
<polyline clip-path="url(#clip3000)" style="stroke:#000000; stroke-width:4; stroke-opacity:1; fill:none" points="
  703.414,1425.62 703.414,1406.06 
  "/>
<polyline clip-path="url(#clip3000)" style="stroke:#000000; stroke-width:4; stroke-opacity:1; fill:none" points="
  894.798,1425.62 894.798,1406.06 
  "/>
<polyline clip-path="url(#clip3000)" style="stroke:#000000; stroke-width:4; stroke-opacity:1; fill:none" points="
  1086.18,1425.62 1086.18,1406.06 
  "/>
<polyline clip-path="url(#clip3000)" style="stroke:#000000; stroke-width:4; stroke-opacity:1; fill:none" points="
  1277.56,1425.62 1277.56,1406.06 
  "/>
<polyline clip-path="url(#clip3000)" style="stroke:#000000; stroke-width:4; stroke-opacity:1; fill:none" points="
  1468.95,1425.62 1468.95,1406.06 
  "/>
<polyline clip-path="url(#clip3000)" style="stroke:#000000; stroke-width:4; stroke-opacity:1; fill:none" points="
  1660.33,1425.62 1660.33,1406.06 
  "/>
<polyline clip-path="url(#clip3000)" style="stroke:#000000; stroke-width:4; stroke-opacity:1; fill:none" points="
  1851.71,1425.62 1851.71,1406.06 
  "/>
<polyline clip-path="url(#clip3000)" style="stroke:#000000; stroke-width:4; stroke-opacity:1; fill:none" points="
  2043.1,1425.62 2043.1,1406.06 
  "/>
<polyline clip-path="url(#clip3000)" style="stroke:#000000; stroke-width:4; stroke-opacity:1; fill:none" points="
  202.373,1388.71 234.629,1388.71 
  "/>
<polyline clip-path="url(#clip3000)" style="stroke:#000000; stroke-width:4; stroke-opacity:1; fill:none" points="
  202.373,1026.91 234.629,1026.91 
  "/>
<polyline clip-path="url(#clip3000)" style="stroke:#000000; stroke-width:4; stroke-opacity:1; fill:none" points="
  202.373,665.106 234.629,665.106 
  "/>
<polyline clip-path="url(#clip3000)" style="stroke:#000000; stroke-width:4; stroke-opacity:1; fill:none" points="
  202.373,303.301 234.629,303.301 
  "/>
<g clip-path="url(#clip3000)">
<text style="fill:#000000; fill-opacity:1; font-family:Arial,Helvetica Neue,Helvetica,sans-serif; font-size:48px; text-anchor:middle;" transform="rotate(0, 320.648, 1479.62)" x="320.648" y="1479.62">0</text>
</g>
<g clip-path="url(#clip3000)">
<text style="fill:#000000; fill-opacity:1; font-family:Arial,Helvetica Neue,Helvetica,sans-serif; font-size:48px; text-anchor:middle;" transform="rotate(0, 512.031, 1479.62)" x="512.031" y="1479.62">1</text>
</g>
<g clip-path="url(#clip3000)">
<text style="fill:#000000; fill-opacity:1; font-family:Arial,Helvetica Neue,Helvetica,sans-serif; font-size:48px; text-anchor:middle;" transform="rotate(0, 703.414, 1479.62)" x="703.414" y="1479.62">2</text>
</g>
<g clip-path="url(#clip3000)">
<text style="fill:#000000; fill-opacity:1; font-family:Arial,Helvetica Neue,Helvetica,sans-serif; font-size:48px; text-anchor:middle;" transform="rotate(0, 894.798, 1479.62)" x="894.798" y="1479.62">3</text>
</g>
<g clip-path="url(#clip3000)">
<text style="fill:#000000; fill-opacity:1; font-family:Arial,Helvetica Neue,Helvetica,sans-serif; font-size:48px; text-anchor:middle;" transform="rotate(0, 1086.18, 1479.62)" x="1086.18" y="1479.62">4</text>
</g>
<g clip-path="url(#clip3000)">
<text style="fill:#000000; fill-opacity:1; font-family:Arial,Helvetica Neue,Helvetica,sans-serif; font-size:48px; text-anchor:middle;" transform="rotate(0, 1277.56, 1479.62)" x="1277.56" y="1479.62">5</text>
</g>
<g clip-path="url(#clip3000)">
<text style="fill:#000000; fill-opacity:1; font-family:Arial,Helvetica Neue,Helvetica,sans-serif; font-size:48px; text-anchor:middle;" transform="rotate(0, 1468.95, 1479.62)" x="1468.95" y="1479.62">6</text>
</g>
<g clip-path="url(#clip3000)">
<text style="fill:#000000; fill-opacity:1; font-family:Arial,Helvetica Neue,Helvetica,sans-serif; font-size:48px; text-anchor:middle;" transform="rotate(0, 1660.33, 1479.62)" x="1660.33" y="1479.62">7</text>
</g>
<g clip-path="url(#clip3000)">
<text style="fill:#000000; fill-opacity:1; font-family:Arial,Helvetica Neue,Helvetica,sans-serif; font-size:48px; text-anchor:middle;" transform="rotate(0, 1851.71, 1479.62)" x="1851.71" y="1479.62">8</text>
</g>
<g clip-path="url(#clip3000)">
<text style="fill:#000000; fill-opacity:1; font-family:Arial,Helvetica Neue,Helvetica,sans-serif; font-size:48px; text-anchor:middle;" transform="rotate(0, 2043.1, 1479.62)" x="2043.1" y="1479.62">9</text>
</g>
<g clip-path="url(#clip3000)">
<text style="fill:#000000; fill-opacity:1; font-family:Arial,Helvetica Neue,Helvetica,sans-serif; font-size:48px; text-anchor:end;" transform="rotate(0, 178.373, 1406.21)" x="178.373" y="1406.21">0</text>
</g>
<g clip-path="url(#clip3000)">
<text style="fill:#000000; fill-opacity:1; font-family:Arial,Helvetica Neue,Helvetica,sans-serif; font-size:48px; text-anchor:end;" transform="rotate(0, 178.373, 1044.41)" x="178.373" y="1044.41">5</text>
</g>
<g clip-path="url(#clip3000)">
<text style="fill:#000000; fill-opacity:1; font-family:Arial,Helvetica Neue,Helvetica,sans-serif; font-size:48px; text-anchor:end;" transform="rotate(0, 178.373, 682.606)" x="178.373" y="682.606">10</text>
</g>
<g clip-path="url(#clip3000)">
<text style="fill:#000000; fill-opacity:1; font-family:Arial,Helvetica Neue,Helvetica,sans-serif; font-size:48px; text-anchor:end;" transform="rotate(0, 178.373, 320.801)" x="178.373" y="320.801">15</text>
</g>
<g clip-path="url(#clip3000)">
<text style="fill:#000000; fill-opacity:1; font-family:Arial,Helvetica Neue,Helvetica,sans-serif; font-size:84px; text-anchor:middle;" transform="rotate(0, 1277.56, 73.2)" x="1277.56" y="73.2">Random numbers</text>
</g>
<g clip-path="url(#clip3000)">
<text style="fill:#000000; fill-opacity:1; font-family:Arial,Helvetica Neue,Helvetica,sans-serif; font-size:66px; text-anchor:middle;" transform="rotate(0, 1277.56, 1559.48)" x="1277.56" y="1559.48">Random number</text>
</g>
<g clip-path="url(#clip3000)">
<text style="fill:#000000; fill-opacity:1; font-family:Arial,Helvetica Neue,Helvetica,sans-serif; font-size:66px; text-anchor:middle;" transform="rotate(-90, 89.2861, 773.647)" x="89.2861" y="773.647">Count of random numbers</text>
</g>
<polygon clip-path="url(#clip3002)" points="
320.648,809.827 320.648,1388.71 512.031,1388.71 512.031,809.827 320.648,809.827 320.648,809.827 
  " fill="#009af9" fill-rule="evenodd" fill-opacity="1"/>
<polyline clip-path="url(#clip3002)" style="stroke:#000000; stroke-width:4; stroke-opacity:1; fill:none" points="
  320.648,809.827 320.648,1388.71 512.031,1388.71 512.031,809.827 320.648,809.827 
  "/>
<polygon clip-path="url(#clip3002)" points="
512.031,665.106 512.031,1388.71 703.414,1388.71 703.414,665.106 512.031,665.106 512.031,665.106 
  " fill="#009af9" fill-rule="evenodd" fill-opacity="1"/>
<polyline clip-path="url(#clip3002)" style="stroke:#000000; stroke-width:4; stroke-opacity:1; fill:none" points="
  512.031,665.106 512.031,1388.71 703.414,1388.71 703.414,665.106 512.031,665.106 
  "/>
<polygon clip-path="url(#clip3002)" points="
703.414,592.745 703.414,1388.71 894.798,1388.71 894.798,592.745 703.414,592.745 703.414,592.745 
  " fill="#009af9" fill-rule="evenodd" fill-opacity="1"/>
<polyline clip-path="url(#clip3002)" style="stroke:#000000; stroke-width:4; stroke-opacity:1; fill:none" points="
  703.414,592.745 703.414,1388.71 894.798,1388.71 894.798,592.745 703.414,592.745 
  "/>
<polygon clip-path="url(#clip3002)" points="
894.798,448.023 894.798,1388.71 1086.18,1388.71 1086.18,448.023 894.798,448.023 894.798,448.023 
  " fill="#009af9" fill-rule="evenodd" fill-opacity="1"/>
<polyline clip-path="url(#clip3002)" style="stroke:#000000; stroke-width:4; stroke-opacity:1; fill:none" points="
  894.798,448.023 894.798,1388.71 1086.18,1388.71 1086.18,448.023 894.798,448.023 
  "/>
<polygon clip-path="url(#clip3002)" points="
1086.18,1171.63 1086.18,1388.71 1277.56,1388.71 1277.56,1171.63 1086.18,1171.63 1086.18,1171.63 
  " fill="#009af9" fill-rule="evenodd" fill-opacity="1"/>
<polyline clip-path="url(#clip3002)" style="stroke:#000000; stroke-width:4; stroke-opacity:1; fill:none" points="
  1086.18,1171.63 1086.18,1388.71 1277.56,1388.71 1277.56,1171.63 1086.18,1171.63 
  "/>
<polygon clip-path="url(#clip3002)" points="
1277.56,737.466 1277.56,1388.71 1468.95,1388.71 1468.95,737.466 1277.56,737.466 1277.56,737.466 
  " fill="#009af9" fill-rule="evenodd" fill-opacity="1"/>
<polyline clip-path="url(#clip3002)" style="stroke:#000000; stroke-width:4; stroke-opacity:1; fill:none" points="
  1277.56,737.466 1277.56,1388.71 1468.95,1388.71 1468.95,737.466 1277.56,737.466 
  "/>
<polygon clip-path="url(#clip3002)" points="
1468.95,737.466 1468.95,1388.71 1660.33,1388.71 1660.33,737.466 1468.95,737.466 1468.95,737.466 
  " fill="#009af9" fill-rule="evenodd" fill-opacity="1"/>
<polyline clip-path="url(#clip3002)" style="stroke:#000000; stroke-width:4; stroke-opacity:1; fill:none" points="
  1468.95,737.466 1468.95,1388.71 1660.33,1388.71 1660.33,737.466 1468.95,737.466 
  "/>
<polygon clip-path="url(#clip3002)" points="
1660.33,158.579 1660.33,1388.71 1851.71,1388.71 1851.71,158.579 1660.33,158.579 1660.33,158.579 
  " fill="#009af9" fill-rule="evenodd" fill-opacity="1"/>
<polyline clip-path="url(#clip3002)" style="stroke:#000000; stroke-width:4; stroke-opacity:1; fill:none" points="
  1660.33,158.579 1660.33,1388.71 1851.71,1388.71 1851.71,158.579 1660.33,158.579 
  "/>
<polygon clip-path="url(#clip3002)" points="
1851.71,592.745 1851.71,1388.71 2043.1,1388.71 2043.1,592.745 1851.71,592.745 1851.71,592.745 
  " fill="#009af9" fill-rule="evenodd" fill-opacity="1"/>
<polyline clip-path="url(#clip3002)" style="stroke:#000000; stroke-width:4; stroke-opacity:1; fill:none" points="
  1851.71,592.745 1851.71,1388.71 2043.1,1388.71 2043.1,592.745 1851.71,592.745 
  "/>
<polygon clip-path="url(#clip3002)" points="
2043.1,737.466 2043.1,1388.71 2234.48,1388.71 2234.48,737.466 2043.1,737.466 2043.1,737.466 
  " fill="#009af9" fill-rule="evenodd" fill-opacity="1"/>
<polyline clip-path="url(#clip3002)" style="stroke:#000000; stroke-width:4; stroke-opacity:1; fill:none" points="
  2043.1,737.466 2043.1,1388.71 2234.48,1388.71 2234.48,737.466 2043.1,737.466 
  "/>
<polygon clip-path="url(#clip3002)" points="
320.648,665.106 320.648,1388.71 416.339,1388.71 416.339,665.106 320.648,665.106 320.648,665.106 
  " fill="#e26f46" fill-rule="evenodd" fill-opacity="1"/>
<polyline clip-path="url(#clip3002)" style="stroke:#000000; stroke-width:4; stroke-opacity:1; fill:none" points="
  320.648,665.106 320.648,1388.71 416.339,1388.71 416.339,665.106 320.648,665.106 
  "/>
<polygon clip-path="url(#clip3002)" points="
416.339,1388.71 416.339,1388.71 512.031,1388.71 512.031,1388.71 416.339,1388.71 416.339,1388.71 
  " fill="#e26f46" fill-rule="evenodd" fill-opacity="1"/>
<polyline clip-path="url(#clip3002)" style="stroke:#000000; stroke-width:4; stroke-opacity:1; fill:none" points="
  416.339,1388.71 416.339,1388.71 512.031,1388.71 416.339,1388.71 
  "/>
<polygon clip-path="url(#clip3002)" points="
512.031,954.549 512.031,1388.71 607.723,1388.71 607.723,954.549 512.031,954.549 512.031,954.549 
  " fill="#e26f46" fill-rule="evenodd" fill-opacity="1"/>
<polyline clip-path="url(#clip3002)" style="stroke:#000000; stroke-width:4; stroke-opacity:1; fill:none" points="
  512.031,954.549 512.031,1388.71 607.723,1388.71 607.723,954.549 512.031,954.549 
  "/>
<polygon clip-path="url(#clip3002)" points="
607.723,1388.71 607.723,1388.71 703.414,1388.71 703.414,1388.71 607.723,1388.71 607.723,1388.71 
  " fill="#e26f46" fill-rule="evenodd" fill-opacity="1"/>
<polyline clip-path="url(#clip3002)" style="stroke:#000000; stroke-width:4; stroke-opacity:1; fill:none" points="
  607.723,1388.71 607.723,1388.71 703.414,1388.71 607.723,1388.71 
  "/>
<polygon clip-path="url(#clip3002)" points="
703.414,809.827 703.414,1388.71 799.106,1388.71 799.106,809.827 703.414,809.827 703.414,809.827 
  " fill="#e26f46" fill-rule="evenodd" fill-opacity="1"/>
<polyline clip-path="url(#clip3002)" style="stroke:#000000; stroke-width:4; stroke-opacity:1; fill:none" points="
  703.414,809.827 703.414,1388.71 799.106,1388.71 799.106,809.827 703.414,809.827 
  "/>
<polygon clip-path="url(#clip3002)" points="
799.106,1388.71 799.106,1388.71 894.798,1388.71 894.798,1388.71 799.106,1388.71 799.106,1388.71 
  " fill="#e26f46" fill-rule="evenodd" fill-opacity="1"/>
<polyline clip-path="url(#clip3002)" style="stroke:#000000; stroke-width:4; stroke-opacity:1; fill:none" points="
  799.106,1388.71 799.106,1388.71 894.798,1388.71 799.106,1388.71 
  "/>
<polygon clip-path="url(#clip3002)" points="
894.798,882.188 894.798,1388.71 990.489,1388.71 990.489,882.188 894.798,882.188 894.798,882.188 
  " fill="#e26f46" fill-rule="evenodd" fill-opacity="1"/>
<polyline clip-path="url(#clip3002)" style="stroke:#000000; stroke-width:4; stroke-opacity:1; fill:none" points="
  894.798,882.188 894.798,1388.71 990.489,1388.71 990.489,882.188 894.798,882.188 
  "/>
<polygon clip-path="url(#clip3002)" points="
990.489,1388.71 990.489,1388.71 1086.18,1388.71 1086.18,1388.71 990.489,1388.71 990.489,1388.71 
  " fill="#e26f46" fill-rule="evenodd" fill-opacity="1"/>
<polyline clip-path="url(#clip3002)" style="stroke:#000000; stroke-width:4; stroke-opacity:1; fill:none" points="
  990.489,1388.71 990.489,1388.71 1086.18,1388.71 990.489,1388.71 
  "/>
<polygon clip-path="url(#clip3002)" points="
1086.18,665.106 1086.18,1388.71 1181.87,1388.71 1181.87,665.106 1086.18,665.106 1086.18,665.106 
  " fill="#e26f46" fill-rule="evenodd" fill-opacity="1"/>
<polyline clip-path="url(#clip3002)" style="stroke:#000000; stroke-width:4; stroke-opacity:1; fill:none" points="
  1086.18,665.106 1086.18,1388.71 1181.87,1388.71 1181.87,665.106 1086.18,665.106 
  "/>
<polygon clip-path="url(#clip3002)" points="
1181.87,1388.71 1181.87,1388.71 1277.56,1388.71 1277.56,1388.71 1181.87,1388.71 1181.87,1388.71 
  " fill="#e26f46" fill-rule="evenodd" fill-opacity="1"/>
<polyline clip-path="url(#clip3002)" style="stroke:#000000; stroke-width:4; stroke-opacity:1; fill:none" points="
  1181.87,1388.71 1181.87,1388.71 1277.56,1388.71 1181.87,1388.71 
  "/>
<polygon clip-path="url(#clip3002)" points="
1277.56,230.94 1277.56,1388.71 1373.26,1388.71 1373.26,230.94 1277.56,230.94 1277.56,230.94 
  " fill="#e26f46" fill-rule="evenodd" fill-opacity="1"/>
<polyline clip-path="url(#clip3002)" style="stroke:#000000; stroke-width:4; stroke-opacity:1; fill:none" points="
  1277.56,230.94 1277.56,1388.71 1373.26,1388.71 1373.26,230.94 1277.56,230.94 
  "/>
<polygon clip-path="url(#clip3002)" points="
1373.26,1388.71 1373.26,1388.71 1468.95,1388.71 1468.95,1388.71 1373.26,1388.71 1373.26,1388.71 
  " fill="#e26f46" fill-rule="evenodd" fill-opacity="1"/>
<polyline clip-path="url(#clip3002)" style="stroke:#000000; stroke-width:4; stroke-opacity:1; fill:none" points="
  1373.26,1388.71 1373.26,1388.71 1468.95,1388.71 1373.26,1388.71 
  "/>
<polygon clip-path="url(#clip3002)" points="
1468.95,809.827 1468.95,1388.71 1564.64,1388.71 1564.64,809.827 1468.95,809.827 1468.95,809.827 
  " fill="#e26f46" fill-rule="evenodd" fill-opacity="1"/>
<polyline clip-path="url(#clip3002)" style="stroke:#000000; stroke-width:4; stroke-opacity:1; fill:none" points="
  1468.95,809.827 1468.95,1388.71 1564.64,1388.71 1564.64,809.827 1468.95,809.827 
  "/>
<polygon clip-path="url(#clip3002)" points="
1564.64,1388.71 1564.64,1388.71 1660.33,1388.71 1660.33,1388.71 1564.64,1388.71 1564.64,1388.71 
  " fill="#e26f46" fill-rule="evenodd" fill-opacity="1"/>
<polyline clip-path="url(#clip3002)" style="stroke:#000000; stroke-width:4; stroke-opacity:1; fill:none" points="
  1564.64,1388.71 1564.64,1388.71 1660.33,1388.71 1564.64,1388.71 
  "/>
<polygon clip-path="url(#clip3002)" points="
1660.33,665.106 1660.33,1388.71 1756.02,1388.71 1756.02,665.106 1660.33,665.106 1660.33,665.106 
  " fill="#e26f46" fill-rule="evenodd" fill-opacity="1"/>
<polyline clip-path="url(#clip3002)" style="stroke:#000000; stroke-width:4; stroke-opacity:1; fill:none" points="
  1660.33,665.106 1660.33,1388.71 1756.02,1388.71 1756.02,665.106 1660.33,665.106 
  "/>
<polygon clip-path="url(#clip3002)" points="
1756.02,1388.71 1756.02,1388.71 1851.71,1388.71 1851.71,1388.71 1756.02,1388.71 1756.02,1388.71 
  " fill="#e26f46" fill-rule="evenodd" fill-opacity="1"/>
<polyline clip-path="url(#clip3002)" style="stroke:#000000; stroke-width:4; stroke-opacity:1; fill:none" points="
  1756.02,1388.71 1756.02,1388.71 1851.71,1388.71 1756.02,1388.71 
  "/>
<polygon clip-path="url(#clip3002)" points="
1851.71,375.662 1851.71,1388.71 1947.41,1388.71 1947.41,375.662 1851.71,375.662 1851.71,375.662 
  " fill="#e26f46" fill-rule="evenodd" fill-opacity="1"/>
<polyline clip-path="url(#clip3002)" style="stroke:#000000; stroke-width:4; stroke-opacity:1; fill:none" points="
  1851.71,375.662 1851.71,1388.71 1947.41,1388.71 1947.41,375.662 1851.71,375.662 
  "/>
<polygon clip-path="url(#clip3002)" points="
1947.41,1388.71 1947.41,1388.71 2043.1,1388.71 2043.1,1388.71 1947.41,1388.71 1947.41,1388.71 
  " fill="#e26f46" fill-rule="evenodd" fill-opacity="1"/>
<polyline clip-path="url(#clip3002)" style="stroke:#000000; stroke-width:4; stroke-opacity:1; fill:none" points="
  1947.41,1388.71 1947.41,1388.71 2043.1,1388.71 1947.41,1388.71 
  "/>
<polygon clip-path="url(#clip3002)" points="
2043.1,592.745 2043.1,1388.71 2138.79,1388.71 2138.79,592.745 2043.1,592.745 2043.1,592.745 
  " fill="#e26f46" fill-rule="evenodd" fill-opacity="1"/>
<polyline clip-path="url(#clip3002)" style="stroke:#000000; stroke-width:4; stroke-opacity:1; fill:none" points="
  2043.1,592.745 2043.1,1388.71 2138.79,1388.71 2138.79,592.745 2043.1,592.745 
  "/>
<polygon clip-path="url(#clip3000)" points="
1441.49,386.635 2280.76,386.635 2280.76,205.195 1441.49,205.195 
  " fill="#ffffff" fill-rule="evenodd" fill-opacity="1"/>
<polyline clip-path="url(#clip3000)" style="stroke:#000000; stroke-width:4; stroke-opacity:1; fill:none" points="
  1441.49,386.635 2280.76,386.635 2280.76,205.195 1441.49,205.195 1441.49,386.635 
  "/>
<polygon clip-path="url(#clip3000)" points="
1465.49,289.867 1609.49,289.867 1609.49,241.483 1465.49,241.483 1465.49,289.867 
  " fill="#009af9" fill-rule="evenodd" fill-opacity="1"/>
<polyline clip-path="url(#clip3000)" style="stroke:#000000; stroke-width:4; stroke-opacity:1; fill:none" points="
  1465.49,289.867 1609.49,289.867 1609.49,241.483 1465.49,241.483 1465.49,289.867 
  "/>
<g clip-path="url(#clip3000)">
<text style="fill:#000000; fill-opacity:1; font-family:Arial,Helvetica Neue,Helvetica,sans-serif; font-size:48px; text-anchor:start;" transform="rotate(0, 1633.49, 283.175)" x="1633.49" y="283.175">Count of random numbers 1</text>
</g>
<polygon clip-path="url(#clip3000)" points="
1465.49,350.347 1609.49,350.347 1609.49,301.963 1465.49,301.963 1465.49,350.347 
  " fill="#e26f46" fill-rule="evenodd" fill-opacity="1"/>
<polyline clip-path="url(#clip3000)" style="stroke:#000000; stroke-width:4; stroke-opacity:1; fill:none" points="
  1465.49,350.347 1609.49,350.347 1609.49,301.963 1465.49,301.963 1465.49,350.347 
  "/>
<g clip-path="url(#clip3000)">
<text style="fill:#000000; fill-opacity:1; font-family:Arial,Helvetica Neue,Helvetica,sans-serif; font-size:48px; text-anchor:start;" transform="rotate(0, 1633.49, 343.655)" x="1633.49" y="343.655">Count of random numbers 2</text>
</g>
</svg>
